<svg id="Layer_1" data-name="Layer 1" xmlns="http://www.w3.org/2000/svg" viewBox="0 0 300 300">
    <defs>
        <style>
            .cls-1,
            .cls-2 {
                fill: none;
                stroke: #fff;
                stroke-linecap: round;
                stroke-linejoin: round;
            }
            .cls-1 {
                stroke-width: 6.05px;
            }
            .cls-2 {
                stroke-width: 6px;
            }
        </style>
    </defs>
    <title>webnotesnotes-annotation</title>
    <path class="cls-1" d="M99.16,228.64A48.39,48.39,0,1,1,137.32,210"/>
      <line class="cls-2" x1="98" y1="201" x2="98" y2="159"/>
      <line class="cls-2" x1="76" y1="180" x2="119" y2="180"/>
      <line class="cls-2" x1="276" y1="83" x2="279" y2="83"/>
      <line class="cls-2" x1="237" y1="83" x2="261" y2="83"/>
      <line class="cls-2" x1="182" y1="83" x2="222" y2="83"/>
      <polyline class="cls-2" points="4 274 4 116.73 4 83 185 83"/>
      <line class="cls-2" x1="4" y1="295" x2="4" y2="289"/>
      <path class="cls-2" d="M173,5H46.49A42.66,42.66,0,0,0,4,47.56V83"/>
      <line class="cls-2" x1="261" y1="5" x2="188" y2="5"/>
      <line class="cls-2" x1="279" y1="5" x2="276" y2="5"/>
      <circle class="cls-1" cx="62.86" cy="45.15" r="13.11"/>
      <circle class="cls-1" cx="108.23" cy="45.15" r="13.11"/>
      <circle class="cls-1" cx="153.6" cy="45.15" r="13.11"/>
      <path class="cls-1" d="M138.68,246.54l17.11-3.75-38.61-27.15,1.44,47.17,12.54-12.23,7.18,13.32a4.26,4.26,0,0,0,7.51-4Z"/>
</svg>
